<svg width="175" height="175" viewBox="0 0 175 175" fill="none" xmlns="http://www.w3.org/2000/svg">
<path fill-rule="evenodd" clip-rule="evenodd" d="M60.5713 119.694C60.5544 119.694 60.5375 119.694 60.5206 119.694H45.0137C27.8853 119.694 14 105.809 14 88.6803C14 71.5518 27.8853 57.6665 45.0137 57.6665H60.5206C60.5375 57.6665 60.5544 57.6665 60.5713 57.6666C67.4565 52.0542 76.2459 48.6889 85.8213 48.6889C91.9822 48.6889 97.8177 50.082 103.03 52.5704C117.881 43.754 138.565 47.6928 148.203 64.3867L156.362 78.5173C168.976 100.366 153.208 127.677 127.979 127.677H111.663C107.746 127.677 104.057 127.019 100.667 125.825C96.0773 127.662 91.0672 128.672 85.8213 128.672C76.2459 128.672 67.4565 125.306 60.5713 119.694Z" fill="#2D2D2D"/>
<path fill-rule="evenodd" clip-rule="evenodd" d="M95.6479 109.083C91.3483 111.674 86.3104 113.165 80.9245 113.165C72.5187 113.165 64.9609 109.534 59.7338 103.755C58.4085 104.038 57.0335 104.187 55.6238 104.187H40.1169C29.299 104.187 20.5293 95.4175 20.5293 84.5996C20.5293 73.7817 29.299 65.012 40.1169 65.012H55.6238C57.0335 65.012 58.4085 65.1609 59.7338 65.4439C64.9609 59.6651 72.5187 56.0343 80.9245 56.0343C87.7757 56.0343 94.0635 58.4463 98.9852 62.4673C108.312 51.9069 125.947 53.0909 133.411 66.0191L141.57 80.1497C149.786 94.3812 139.515 112.171 123.082 112.171H106.766C102.596 112.171 98.8228 111.025 95.6479 109.083Z" fill="#37425E"/>
<path d="M88.5428 95.5646C84.7061 99.3806 79.418 101.739 73.5791 101.739C65.5733 101.739 58.6029 97.3053 54.9893 90.7596C53.0621 92.025 50.7562 92.7612 48.2784 92.7612H32.7716C26.0103 92.7612 20.5293 87.2801 20.5293 80.5189C20.5293 73.7577 26.0103 68.2766 32.7716 68.2766H48.2784C50.7562 68.2766 53.0621 69.0127 54.9893 70.2782C58.6029 63.7325 65.5733 59.299 73.5791 59.299C81.7993 59.299 88.9278 63.9731 92.4519 70.8085L95.4527 65.611C100.842 56.2764 114.315 56.2765 119.705 65.611L127.863 79.7417C133.252 89.0763 126.516 100.744 115.737 100.744H99.4203C94.8725 100.744 91.0443 98.6673 88.5428 95.5646Z" fill="#516695"/>
<circle cx="67.8663" cy="75.7494" r="12.2423" fill="white"/>
<path d="M97.5146 65.3303C99.4484 61.9808 104.283 61.9808 106.217 65.3303L114.375 79.4609C116.309 82.8103 113.892 86.9972 110.024 86.9972H93.7074C89.8398 86.9972 87.4225 82.8103 89.3563 79.4609L97.5146 65.3303Z" fill="white"/>
<rect x="23.7939" y="72.4846" width="22.0361" height="6.52921" rx="3.2646" fill="white"/>
</svg>
