<svg width="875" height="875" viewBox="0 0 875 875" fill="none" xmlns="http://www.w3.org/2000/svg">
<path d="M514.902 257.212C591.202 213.564 696.162 234.243 745.347 319.434L786.139 390.087C851.135 502.665 769.889 643.387 639.896 643.387H558.312C538.842 643.387 520.441 640.224 503.448 634.455C480.394 643.432 455.32 648.358 429.106 648.358C380.68 648.358 336.165 631.556 301.091 603.47H225.068C136.665 603.47 65 531.805 65 443.401C65 354.998 136.665 283.333 225.068 283.333H301.091C336.165 255.246 380.68 238.444 429.106 238.444C459.73 238.444 488.797 245.163 514.902 257.212Z" stroke="white" stroke-width="10" stroke-linejoin="round"/>
<path d="M494.394 305.542C543.957 254.038 633.147 261.362 671.387 327.595L712.178 398.249C755.185 472.74 701.425 565.852 615.411 565.852H533.828C513.164 565.852 494.319 560.464 478.229 551.221C456.552 563.692 431.413 570.824 404.622 570.824C362.147 570.824 323.853 552.903 296.896 524.225C290.804 525.348 284.528 525.936 278.119 525.936H200.585C143.734 525.936 97.6465 479.849 97.6465 422.998C97.6466 366.147 143.734 320.06 200.585 320.06H278.119C284.528 320.06 290.805 320.647 296.896 321.77C323.854 293.093 362.148 275.172 404.622 275.172C438.38 275.172 469.506 286.493 494.394 305.542Z" stroke="white" stroke-width="10" stroke-linejoin="round"/>
<path d="M481.594 330.555C506.616 287.216 569.171 287.216 594.193 330.555L634.984 401.209C660.006 444.548 628.729 498.722 578.685 498.722H497.102C475.964 498.722 458.222 489.092 446.606 474.684L443.123 470.364L439.188 474.278C420.903 492.464 395.716 503.694 367.896 503.694C329.759 503.694 296.548 482.581 279.324 451.382L276.715 446.655L272.202 449.618C263.357 455.426 252.777 458.805 241.393 458.805H163.857C132.813 458.805 107.647 433.639 107.646 402.594C107.646 371.55 132.813 346.384 163.857 346.384H241.393C252.777 346.384 263.357 349.763 272.202 355.571L276.715 358.534L279.324 353.807C296.548 322.608 329.759 301.495 367.896 301.495C407.053 301.495 441.019 323.755 457.815 356.334L462.012 364.472L466.59 356.543L481.594 330.555Z" stroke="white" stroke-width="10"/>
<circle cx="339.331" cy="378.747" r="56.2113" fill="white" stroke="white" stroke-width="10"/>
<path d="M491.903 329.151C499.647 315.737 519.009 315.737 526.753 329.151L567.545 399.805C575.29 413.219 565.609 429.986 550.12 429.986H468.537C453.048 429.986 443.368 413.219 451.112 399.805L491.903 329.151Z" fill="white" stroke="white" stroke-width="10"/>
<rect x="123.97" y="367.423" width="100.18" height="22.646" rx="11.323" fill="white" stroke="white" stroke-width="10"/>
</svg>
