<svg width="875" height="875" viewBox="0 0 875 875" fill="none" xmlns="http://www.w3.org/2000/svg">
<path fill-rule="evenodd" clip-rule="evenodd" d="M302.856 598.47C302.772 598.47 302.688 598.47 302.603 598.47H225.069C139.427 598.47 70 529.043 70 443.401C70 357.759 139.427 288.333 225.069 288.333H302.603C302.688 288.333 302.772 288.333 302.856 288.333C337.282 260.271 381.229 243.444 429.107 243.444C459.911 243.444 489.088 250.41 515.15 262.852C589.403 218.77 692.826 238.464 741.017 321.933L781.808 392.586C844.881 501.831 766.04 638.387 639.896 638.387H558.313C538.729 638.387 520.286 635.096 503.337 629.127C480.386 638.308 455.336 643.358 429.107 643.358C381.229 643.358 337.282 626.532 302.856 598.47Z" fill="#2D2D2D"/>
<path fill-rule="evenodd" clip-rule="evenodd" d="M478.239 545.415C456.741 558.371 431.552 565.824 404.622 565.824C362.593 565.824 324.804 547.671 298.669 518.777C292.042 520.192 285.168 520.936 278.119 520.936H200.585C146.495 520.936 102.646 477.088 102.646 422.998C102.646 368.908 146.495 325.06 200.585 325.06H278.119C285.168 325.06 292.042 325.804 298.669 327.219C324.804 298.325 362.593 280.172 404.622 280.172C438.878 280.172 470.318 292.231 494.926 312.337C541.561 259.535 629.736 265.454 667.056 330.095L707.848 400.748C748.931 471.906 697.577 560.853 615.412 560.853H533.828C512.979 560.853 494.114 555.126 478.239 545.415Z" fill="#37425E"/>
<path d="M442.714 477.823C423.53 496.903 397.09 508.694 367.896 508.694C327.866 508.694 293.015 486.527 274.947 453.798C265.311 460.125 253.781 463.806 241.392 463.806H163.858C130.052 463.806 102.646 436.401 102.646 402.594C102.646 368.788 130.052 341.383 163.858 341.383H241.392C253.781 341.383 265.311 345.064 274.947 351.391C293.015 318.662 327.866 296.495 367.896 296.495C408.997 296.495 444.639 319.865 462.26 354.042L477.263 328.055C504.21 281.382 571.577 281.382 598.523 328.055L639.315 398.708C666.261 445.381 632.578 503.722 578.685 503.722H497.102C474.363 503.722 455.221 493.336 442.714 477.823Z" fill="#516695"/>
<circle cx="339.331" cy="378.747" r="61.2113" fill="white"/>
<path d="M487.573 326.651C497.242 309.904 521.415 309.904 531.084 326.651L571.876 397.304C581.545 414.052 569.458 434.986 550.12 434.986H468.537C449.199 434.986 437.112 414.052 446.782 397.304L487.573 326.651Z" fill="white"/>
<rect x="118.97" y="362.423" width="110.18" height="32.646" rx="16.323" fill="white"/>
</svg>
